<svg width="67" height="50" viewBox="0 0 67 50" fill="none" xmlns="http://www.w3.org/2000/svg">
<g clip-path="url(#clip0_202_71)">
<path d="M0 5.87656V4.16667C0 3.0616 0.438987 2.00179 1.22039 1.22039C2.00179 0.438987 3.0616 0 4.16667 0L62.5 0C63.6051 0 64.6649 0.438987 65.4463 1.22039C66.2277 2.00179 66.6667 3.0616 66.6667 4.16667V5.87656L33.3333 26.7099L0 5.87656ZM34.4375 30.9339C34.1063 31.1406 33.7237 31.2502 33.3333 31.2502C32.9429 31.2502 32.5604 31.1406 32.2292 30.9339L0 10.7901V45.8333C0 46.9384 0.438987 47.9982 1.22039 48.7796C2.00179 49.561 3.0616 50 4.16667 50H62.5C63.6051 50 64.6649 49.561 65.4463 48.7796C66.2277 47.9982 66.6667 46.9384 66.6667 45.8333V10.7901L34.4375 30.9339Z" fill="black"/>
</g>
<defs>
<clipPath id="clip0_202_71">
<rect width="66.6667" height="50" fill="white"/>
</clipPath>
</defs>
</svg>
