<svg width="52" height="52" viewBox="0 0 52 52" fill="none" xmlns="http://www.w3.org/2000/svg">
<path d="M13.192 40.9821C13.0134 41.183 12.7902 41.1496 12.5223 40.8817C12.2321 40.6362 12.1875 40.4241 12.3884 40.2455C12.567 40.0446 12.7902 40.0781 13.058 40.346C13.3259 40.5915 13.3705 40.8036 13.192 40.9821ZM11.7857 38.9397C11.9866 39.2076 11.9866 39.4196 11.7857 39.5759C11.6071 39.7098 11.4174 39.6317 11.2165 39.3415C11.0156 39.0513 11.0156 38.8504 11.2165 38.7388C11.4174 38.5826 11.6071 38.6496 11.7857 38.9397ZM9.7433 36.9308C9.6317 37.0871 9.48661 37.1094 9.30804 36.9978C9.08482 36.8862 9.0067 36.7522 9.07366 36.596C9.14062 36.4844 9.28571 36.4621 9.50893 36.529C9.73214 36.6406 9.81027 36.7746 9.7433 36.9308ZM10.7812 38.0692C10.6473 38.2254 10.4688 38.192 10.2455 37.9688C10.0446 37.7232 10.0223 37.5446 10.1786 37.433C10.3125 37.2991 10.4911 37.3326 10.7143 37.5335C10.9152 37.779 10.9375 37.9576 10.7812 38.0692ZM15.1004 41.8192C15.0112 42.0871 14.7991 42.154 14.4643 42.0201C14.0848 41.9308 13.9397 41.7634 14.029 41.5179C14.1183 41.2723 14.3304 41.1942 14.6652 41.2835C15.0223 41.3951 15.1674 41.5737 15.1004 41.8192ZM17.2098 41.9866C17.2098 42.2321 17.0312 42.3549 16.6741 42.3549C16.2946 42.3996 16.1049 42.2768 16.1049 41.9866C16.1049 41.7411 16.2835 41.6183 16.6406 41.6183C17.0201 41.5737 17.2098 41.6964 17.2098 41.9866ZM19.1518 41.6518C19.1964 41.875 19.0402 42.0312 18.683 42.1205C18.3259 42.2098 18.125 42.1205 18.0804 41.8527C18.0357 41.5848 18.192 41.4174 18.5491 41.3504C18.9062 41.3058 19.1071 41.4062 19.1518 41.6518ZM51.4286 9.64286V41.7857C51.4286 44.442 50.4855 46.7132 48.5993 48.5993C46.7132 50.4855 44.442 51.4286 41.7857 51.4286H34.2857C33.9286 51.4286 33.6551 51.4174 33.4654 51.3951C33.2757 51.3728 33.058 51.317 32.8125 51.2277C32.567 51.1384 32.3884 50.9766 32.2768 50.7422C32.1652 50.5078 32.1094 50.2009 32.1094 49.8214V41.8192C32.1094 39.654 31.529 38.0692 30.3683 37.0647C31.6406 36.9308 32.7846 36.7299 33.8002 36.4621C34.8158 36.1942 35.865 35.7589 36.9475 35.1562C38.0301 34.5536 38.9342 33.8114 39.6596 32.9297C40.385 32.048 40.9766 30.8761 41.4342 29.4141C41.8917 27.952 42.1205 26.2723 42.1205 24.375C42.1205 21.6741 41.2388 19.375 39.4754 17.4777C40.3013 15.4464 40.2121 13.1696 39.2076 10.6473C38.5826 10.4464 37.6786 10.5692 36.4955 11.0156C35.3125 11.4621 34.2857 11.9531 33.4152 12.4888L32.1429 13.2924C30.067 12.7121 27.9241 12.4219 25.7143 12.4219C23.5045 12.4219 21.3616 12.7121 19.2857 13.2924C18.9286 13.0469 18.4542 12.7455 17.8627 12.3884C17.2712 12.0312 16.3393 11.6016 15.067 11.0993C13.7946 10.5971 12.8348 10.4464 12.1875 10.6473C11.2054 13.1696 11.1272 15.4464 11.9531 17.4777C10.1897 19.375 9.30804 21.6741 9.30804 24.375C9.30804 26.2723 9.53683 27.9464 9.99442 29.3973C10.452 30.8482 11.0379 32.0201 11.7522 32.9129C12.4665 33.8058 13.365 34.5536 14.4475 35.1562C15.5301 35.7589 16.5792 36.1942 17.5949 36.4621C18.6105 36.7299 19.7545 36.9308 21.0268 37.0647C20.1339 37.8683 19.5871 39.0179 19.3862 40.5134C18.9174 40.7366 18.4152 40.904 17.8795 41.0156C17.3438 41.1272 16.7076 41.183 15.971 41.183C15.2344 41.183 14.5033 40.9431 13.7779 40.4632C13.0525 39.9833 12.433 39.2857 11.9196 38.3705C11.4955 37.6562 10.9542 37.0759 10.2958 36.6295C9.63728 36.183 9.08482 35.9152 8.63839 35.8259L7.96875 35.7254C7.5 35.7254 7.17634 35.7757 6.99777 35.8761C6.8192 35.9766 6.76339 36.1049 6.83036 36.2612C6.89732 36.4174 6.99777 36.5737 7.1317 36.7299C7.26562 36.8862 7.41071 37.0201 7.56696 37.1317L7.80134 37.2991C8.29241 37.5223 8.7779 37.9464 9.25781 38.5714C9.73772 39.1964 10.0893 39.7656 10.3125 40.279L10.6473 41.0491C10.9375 41.8973 11.4286 42.5837 12.1205 43.1083C12.8125 43.6328 13.5603 43.9676 14.3638 44.1127C15.1674 44.2578 15.9431 44.3359 16.6908 44.3471C17.4386 44.3583 18.058 44.3192 18.5491 44.2299L19.3192 44.096C19.3192 44.9442 19.3248 46.0938 19.3359 47.5446C19.3471 48.9955 19.3527 49.7545 19.3527 49.8214C19.3527 50.3125 19.2299 50.6864 18.9844 50.9431C18.7388 51.1998 18.4933 51.3449 18.2478 51.3783C18.0022 51.4118 17.6339 51.4286 17.1429 51.4286H9.64286C6.98661 51.4286 4.7154 50.4855 2.82924 48.5993C0.94308 46.7132 0 44.442 0 41.7857V9.64286C0 6.98661 0.94308 4.7154 2.82924 2.82924C4.7154 0.94308 6.98661 0 9.64286 0H41.7857C44.442 0 46.7132 0.94308 48.5993 2.82924C50.4855 4.7154 51.4286 6.98661 51.4286 9.64286Z" fill="black"/>
</svg>
