<svg width="50" height="50" viewBox="0 0 50 50" fill="none" xmlns="http://www.w3.org/2000/svg">
<path d="M46.175 -0.000138704H3.82502C3.34897 -0.00675026 2.87628 0.08048 2.43394 0.256571C1.9916 0.432661 1.58828 0.694163 1.24702 1.02614C0.905754 1.35812 0.633228 1.75407 0.445004 2.19139C0.25678 2.6287 0.156545 3.09881 0.150024 3.57486V46.4249C0.156545 46.9009 0.25678 47.371 0.445004 47.8083C0.633228 48.2456 0.905754 48.6416 1.24702 48.9736C1.58828 49.3056 1.9916 49.5671 2.43394 49.7431C2.87628 49.9192 3.34897 50.0065 3.82502 49.9999H46.175C46.6511 50.0065 47.1238 49.9192 47.5661 49.7431C48.0084 49.5671 48.4118 49.3056 48.753 48.9736C49.0943 48.6416 49.3668 48.2456 49.555 47.8083C49.7433 47.371 49.8435 46.9009 49.85 46.4249V3.57486C49.8435 3.09881 49.7433 2.6287 49.555 2.19139C49.3668 1.75407 49.0943 1.35812 48.753 1.02614C48.4118 0.694163 48.0084 0.432661 47.5661 0.256571C47.1238 0.08048 46.6511 -0.00675026 46.175 -0.000138704ZM15.225 41.8499H7.72503V19.3499H15.225V41.8499ZM11.475 16.1999C10.4407 16.1999 9.4487 15.789 8.71731 15.0576C7.98592 14.3262 7.57503 13.3342 7.57503 12.2999C7.57503 11.2655 7.98592 10.2735 8.71731 9.54214C9.4487 8.81075 10.4407 8.39986 11.475 8.39986C12.0243 8.33757 12.5805 8.392 13.1072 8.55957C13.634 8.72714 14.1194 9.00409 14.5317 9.37227C14.944 9.74045 15.2738 10.1916 15.4997 10.6961C15.7256 11.2006 15.8423 11.7471 15.8423 12.2999C15.8423 12.8526 15.7256 13.3991 15.4997 13.9037C15.2738 14.4082 14.944 14.8593 14.5317 15.2275C14.1194 15.5956 13.634 15.8726 13.1072 16.0402C12.5805 16.2077 12.0243 16.2621 11.475 16.1999ZM42.275 41.8499H34.775V29.7749C34.775 26.7499 33.7 24.7749 30.975 24.7749C30.1317 24.781 29.3105 25.0456 28.6221 25.5328C27.9337 26.02 27.4112 26.7065 27.125 27.4999C26.9294 28.0875 26.8446 28.7063 26.875 29.3249V41.8249H19.375C19.375 41.8249 19.375 21.3749 19.375 19.3249H26.875V22.4999C27.5564 21.3176 28.5473 20.3437 29.7411 19.6829C30.935 19.0221 32.2864 18.6995 33.65 18.7499C38.65 18.7499 42.275 21.9749 42.275 28.8999V41.8499Z" fill="black"/>
</svg>
