<svg width="44" height="54" viewBox="0 0 44 54" fill="none" xmlns="http://www.w3.org/2000/svg">
<path d="M43.0227 10.7207C42.7283 11.0037 42.3208 11.1735 41.8793 11.1735H35.0755C34.3072 11.1723 33.5708 10.8666 33.0275 10.3233C32.4843 9.7801 32.1786 9.04364 32.1774 8.27538V1.42633C32.1774 1.00746 32.3359 0.611234 32.5963 0.316895H3.08305C1.91701 0.316895 0.966064 1.26784 0.966064 2.43388V51.5659C0.966064 52.732 1.91701 53.6829 3.08305 53.6829H40.917C42.083 53.6829 43.034 52.732 43.034 51.5546V10.8452C43.034 10.7999 43.034 10.766 43.0227 10.7207ZM10.9736 15.0678C10.9963 14.898 11.0189 14.7395 11.0529 14.5697C11.0868 14.3433 11.1208 14.1282 11.1661 13.9018C11.2113 13.698 11.268 13.4829 11.3246 13.2792C11.3698 13.1207 11.4151 12.9622 11.4717 12.8037C11.551 12.566 11.6302 12.3395 11.7208 12.1131C11.7661 11.9999 11.8227 11.8867 11.8679 11.7735C11.9812 11.5244 12.0944 11.2754 12.2189 11.0376C12.2642 10.9697 12.3095 10.9018 12.3434 10.8339C12.7772 10.0582 13.3058 9.33947 13.917 8.69425C14.0189 8.58105 14.1208 8.46784 14.2227 8.36595L14.6642 7.9584C14.834 7.82255 14.9925 7.68671 15.1623 7.55086C15.2302 7.49425 15.2868 7.43765 15.3661 7.38104C15.3887 7.3584 15.4113 7.3584 15.434 7.34708C16.5643 6.50963 17.8437 5.89492 19.2038 5.53576C19.2378 5.52444 19.2491 5.5018 19.2717 5.5018C19.351 5.47916 19.4189 5.47916 19.4981 5.45652C19.7812 5.38859 20.0755 5.33199 20.3698 5.28671C20.4944 5.27539 20.6302 5.24142 20.7661 5.2301C21.1849 5.18482 21.6151 5.15086 22.0453 5.15086C22.4868 5.15086 22.9057 5.18482 23.3359 5.2301C23.4717 5.24142 23.5963 5.27539 23.7321 5.28671C24.0264 5.33199 24.3095 5.38859 24.5925 5.45652C24.6717 5.47916 24.751 5.47916 24.8189 5.5018C24.8415 5.5018 24.8642 5.52444 24.8868 5.53576C26.268 5.89803 27.5472 6.52067 28.6566 7.34708C28.6906 7.3584 28.7132 7.3584 28.7359 7.38104L28.9396 7.55086C29.1095 7.68671 29.268 7.82255 29.4264 7.9584L29.868 8.36595C29.9698 8.46784 30.0717 8.58105 30.1736 8.69425C30.7849 9.33954 31.317 10.0641 31.7472 10.8339C31.7925 10.9018 31.8378 10.9697 31.8717 11.0376C31.9963 11.2754 32.1208 11.5244 32.2227 11.7735C32.3744 12.1102 32.5101 12.454 32.6291 12.8037L32.7649 13.2792C32.8215 13.4829 32.8804 13.698 32.9257 13.9018C32.9823 14.1282 33.014 14.3433 33.0491 14.5697C33.0717 14.7395 33.1057 14.898 33.117 15.0678C33.1623 15.4641 33.1963 15.8716 33.1963 16.2905C33.1963 18.9282 32.2566 21.498 30.5472 23.5131C29.4983 24.7436 28.1951 25.732 26.7273 26.4102C25.2595 27.0884 23.6622 27.4402 22.0453 27.4414C18.7736 27.4414 15.6717 26.0037 13.5547 23.5131C12.5739 22.3543 11.8392 21.0079 11.3954 19.556C10.9517 18.1041 10.8081 16.577 10.9736 15.0678ZM37.5468 47.8867H6.54946C6.39934 47.8867 6.25536 47.8271 6.14921 47.7209C6.04306 47.6148 5.98342 47.4708 5.98342 47.3207C5.98342 47.1705 6.04306 47.0266 6.14921 46.9204C6.25536 46.8143 6.39934 46.7546 6.54946 46.7546H37.5457C37.6958 46.7546 37.8398 46.8143 37.9459 46.9204C38.0521 47.0266 38.1117 47.1705 38.1117 47.3207C38.1117 47.4708 38.0521 47.6148 37.9459 47.7209C37.8398 47.8271 37.6958 47.8867 37.5457 47.8867M37.5457 42.7618H6.54946C6.39934 42.7618 6.25536 42.7022 6.14921 42.596C6.04306 42.4899 5.98342 42.3459 5.98342 42.1958C5.98342 42.0456 6.04306 41.9017 6.14921 41.7955C6.25536 41.6894 6.39934 41.6297 6.54946 41.6297H37.5457C37.6958 41.6297 37.8398 41.6894 37.9459 41.7955C38.0521 41.9017 38.1117 42.0456 38.1117 42.1958C38.1117 42.3459 38.0521 42.4899 37.9459 42.596C37.8398 42.7022 37.6958 42.7618 37.5457 42.7618ZM37.5457 37.6335H6.54946C6.39934 37.6335 6.25536 37.5739 6.14921 37.4677C6.04306 37.3616 5.98342 37.2176 5.98342 37.0675C5.98342 36.9173 6.04306 36.7734 6.14921 36.6672C6.25536 36.5611 6.39934 36.5014 6.54946 36.5014H37.5457C37.6958 36.5014 37.8398 36.5611 37.9459 36.6672C38.0521 36.7734 38.1117 36.9173 38.1117 37.0675C38.1117 37.2176 38.0521 37.3616 37.9459 37.4677C37.8398 37.5739 37.6958 37.6335 37.5457 37.6335ZM37.5457 32.5075H6.54946C6.39934 32.5075 6.25536 32.4478 6.14921 32.3417C6.04306 32.2355 5.98342 32.0915 5.98342 31.9414C5.98342 31.7913 6.04306 31.6473 6.14921 31.5412C6.25536 31.435 6.39934 31.3754 6.54946 31.3754H37.5457C37.6958 31.3754 37.8398 31.435 37.9459 31.5412C38.0521 31.6473 38.1117 31.7913 38.1117 31.9414C38.1117 32.0915 38.0521 32.2355 37.9459 32.3417C37.8398 32.4478 37.6958 32.5075 37.5457 32.5075Z" fill="black"/>
<path d="M21.3208 19.2681C21.5698 19.3134 21.8075 19.3247 22.0566 19.3247C23.3087 19.3243 24.5096 18.8277 25.3962 17.9436C26.4604 16.8681 26.9472 15.3851 26.7094 13.8681C26.4151 11.8644 24.7962 10.2455 22.7925 9.93983C22.0523 9.81833 21.2938 9.87624 20.5807 10.1087C19.8676 10.3411 19.2207 10.7413 18.6943 11.2757C17.6189 12.3625 17.1434 13.8568 17.3811 15.3851C17.7094 17.3776 19.3283 18.9851 21.3208 19.2681Z" fill="black"/>
<path d="M22.0453 25.1774C24.6603 25.1774 27.1283 24.034 28.8264 22.0415C29.1773 21.6226 29.4943 21.1698 29.766 20.683C28.9962 19.5473 27.8426 18.7274 26.5169 18.3736C26.4264 18.4981 26.3132 18.6226 26.2 18.7358C25.1015 19.836 23.6112 20.4549 22.0566 20.4566C21.8075 20.4566 21.4792 20.4453 21.1169 20.3774C19.7132 20.1849 18.4566 19.4377 17.5622 18.3736C16.2401 18.7286 15.0929 19.5538 14.3358 20.6943C14.6075 21.1698 14.9245 21.6226 15.2754 22.0415C16.1092 23.0236 17.1464 23.8127 18.3154 24.3542C19.4843 24.8956 20.757 25.1765 22.0453 25.1774ZM35.0732 10.0381H41.8826C42.0327 10.0381 42.1767 9.97847 42.2829 9.87232C42.389 9.76617 42.4486 9.62219 42.4486 9.47207L33.8788 0.86377C33.7287 0.86377 33.5847 0.923405 33.4786 1.02956C33.3724 1.13571 33.3128 1.27968 33.3128 1.42981V8.27886C33.3128 9.24905 34.1041 10.0381 35.0732 10.0381Z" fill="black"/>
</svg>
