<svg width="50" height="50" viewBox="0 0 50 50" fill="none" xmlns="http://www.w3.org/2000/svg">
<g clip-path="url(#clip0_202_76)">
<mask id="mask0_202_76" style="mask-type:luminance" maskUnits="userSpaceOnUse" x="0" y="0" width="50" height="50">
<path d="M50 0H0V50H50V0Z" fill="white"/>
</mask>
<g mask="url(#mask0_202_76)">
<path d="M44.1406 0H5.85938C2.62333 0 0 2.62333 0 5.85938V44.1406C0 47.3767 2.62333 50 5.85938 50H44.1406C47.3767 50 50 47.3767 50 44.1406V5.85938C50 2.62333 47.3767 0 44.1406 0Z" fill="black"/>
<path d="M34.7563 9.76562H39.9251L28.6329 22.6719L41.9172 40.2344H31.5157L23.3688 29.5828L14.0469 40.2344H8.8751L20.9532 26.4297L8.20947 9.76562H18.875L26.2391 19.5016L34.7563 9.76562ZM32.9422 37.1406H35.8063L17.3188 12.6969H14.2454L32.9422 37.1406Z" fill="white"/>
</g>
</g>
<defs>
<clipPath id="clip0_202_76">
<rect width="50" height="50" fill="white"/>
</clipPath>
</defs>
</svg>
